<?xml version="1.0" encoding="UTF-8"?><svg id="Laag_1" xmlns="http://www.w3.org/2000/svg" viewBox="0 0 407.76 560"><defs><style>.cls-1{fill:#646464;}.cls-1,.cls-2,.cls-3{fill-rule:evenodd;}.cls-2{fill:#13670b;}.cls-3{fill:#e3000f;}</style></defs><path class="cls-2" d="M202.97,61.62c-38.06,47.12-77.93,92.43-117.8,137.73h25.37c50.75-18.12,90.61-54.37,123.23-103.3l-30.81-34.43h0Zm61.62,197.54l7.25,23.56,23.56-1.81-18.12,14.5,7.25,21.75-19.93-12.69-18.12,12.69,7.25-21.75-18.12-14.5,23.56,1.81,5.44-23.56h0Zm-83.37-30.81l3.62,14.5h16.31l-12.69,9.06,5.44,16.31-12.69-10.88-12.69,10.88,3.62-16.31-12.69-9.06h16.31l5.44-14.5Zm43.5-50.75l3.62,12.69h14.5l-10.88,7.25,3.62,12.69-10.88-7.25-10.88,7.25,3.62-12.69-10.88-7.25h14.5l3.62-12.69Zm-110.55,213.85l7.25,21.75h25.37l-19.93,14.5,7.25,23.56-19.93-14.5-19.93,14.5,7.25-23.56-18.12-14.5h23.56l7.25-21.75h0Zm97.86-23.56l5.44,18.12h18.12l-14.5,10.88,5.44,16.31-14.5-10.88-14.5,10.88,5.44-16.31-16.31-10.88h19.93l5.44-18.12h0Zm-67.05-29l5.44,14.5h14.5l-12.69,9.06,5.44,14.5-12.69-9.06-12.69,9.06,5.44-14.5-12.69-9.06h16.31l3.63-14.5Zm186.67,81.55l5.44,16.31h18.12l-14.5,10.88,5.44,16.31-14.5-10.88-14.5,10.88,5.44-16.31-14.5-10.88h18.12l5.44-16.31h0ZM137.73,212.04l-38.06,48.93c65.24,36.25,143.17,72.49,217.48,81.55h54.37l-110.55-143.17h61.62l-74.3-86.99c-29,43.5-65.24,79.74-110.55,99.68h0Zm-52.55,67.05l-48.93,63.43H112.36L0,471.2H97.86c79.74-23.56,173.98-63.43,230.16-90.61l-14.5-16.31c-76.12-10.88-157.67-47.12-228.35-85.18h0Zm83.37,192.12h239.22l-63.43-72.49c-52.55,23.56-115.99,50.75-175.79,72.49h0Z"/><path class="cls-1" d="M239.22,476.63v67.05c0,9.06-7.25,16.31-16.31,16.31h-47.12c-9.06,0-16.31-7.25-16.31-16.31v-67.05h79.75Z"/><path class="cls-3" d="M202.97,0l10.88,30.81h30.81l-25.37,18.12,10.87,30.81-27.18-19.94-25.37,19.94,10.87-30.81-27.18-18.12h32.62L202.97,0Z"/></svg>